<?xml version="1.0" encoding="UTF-8" standalone="no"?>
<!-- Created with Inkscape (http://www.inkscape.org/) -->

<svg
   version="1.1"
   id="svg1"
   width="2000"
   height="2000.0001"
   viewBox="0 0 2000 2000.0001"
   xmlns="http://www.w3.org/2000/svg"
   xmlns:svg="http://www.w3.org/2000/svg">
  <defs
     id="defs1" />
  <path
     id="rect10"
     style="display:inline;fill:#694eff;fill-opacity:1;stroke-width:1.07589"
     d="m 643.73062,811.0025 c -128.9379,-3.6e-4 -235.19626,70.52296 -247.47115,160.37661 v 34.70099 c 0.031,0.226 0.0614,0.4519 0.0935,0.6778 v 105.3337 h -0.17348 c -1.24778,107.6763 -89.49656,194.3763 -198.00924,194.4392 C 89.656747,1306.4686 1.4088035,1219.7687 0.16096327,1112.0916 H 0.01477053 v 555.8368 C 14.514311,1571.2352 98.138769,1499.6585 196.60697,1499.6592 c 109.77076,8e-4 198.75808,88.3457 198.75779,197.3258 v 0.25 h 0.0331 v 103.492 h 0.0448 c 0.32796,110.1504 90.36316,199.2733 201.31325,199.273 111.1819,-2e-4 201.31108,-89.4819 201.31129,-199.8629 -2.4e-4,-2.1053 -0.0321,-4.2101 -0.0994,-6.3144 v -85.117 a 295.95185,298.47959 0 0 1 -0.0858,-7.1856 295.95185,298.47959 0 0 1 0.0858,-7.1855 v -106.6131 h -39.41939 a 195.70837,194.29854 0 0 1 -47.5029,5.8106 195.70837,194.29854 0 0 1 -195.7092,-194.2985 195.70837,194.29854 0 0 1 192.87696,-194.2769 v -0.021 h 12.06577 342.77706 1.4872 146.0017 v -0.023 c 0.7531,0.01 1.5063,0.012 2.2593,0.012 109.4293,5e-4 198.1385,-88.0696 198.138,-196.7105 -6e-4,-108.64012 -88.9182,-197.21101 -198.3466,-197.2105 -0.753,-6e-5 -4.9901,0 -10.9781,0 -187.6257,0 -363.27381,-1.3725 -550.90098,0 z" />
  <path
     id="rect6"
     style="display:inline;fill:#ffffa3;fill-opacity:1;stroke-width:1.07732"
     d="m 1703.2439,1204.4938 c -163.8864,-4e-4 -296.7428,131.5472 -296.7429,293.8197 -3e-4,1.1901 0.01,2.3803 0.021,3.5703 h 92.6504 c 59.5283,-10e-5 107.8343,47.6907 108.0082,106.6326 h 0.043 v 179.9703 h -0.024 V 2000 h 392.7293 v -495.9756 c 0.038,-1.9034 0.057,-3.8071 0.057,-5.7109 -10e-5,-162.2725 -132.8565,-293.8201 -296.7428,-293.8197 z m -994.57212,0.4414 v 0.021 c -107.25651,1.5366 -193.39119,88.0655 -193.39193,194.2769 4e-5,107.3084 87.8561,194.299 196.23174,194.2985 2.33482,-4e-4 4.66943,-0.042 7.00275,-0.125 h 79.48901 c 0,187.5959 0,86.5971 -0.12135,108.1135 -1.5e-4,164.8453 133.55305,298.4787 297.4387,298.4794 163.8866,4e-4 296.7429,-133.6338 296.7428,-298.4799 2e-4,-3.0038 -0.045,-6.0073 -0.1347,-9.0097 h -88.4894 c -59.5282,10e-5 -107.8342,-47.6903 -108.0083,-106.6321 h -0.043 v -151.1305 h 0.068 v -91.4276 c 0.1834,-2.7984 0.2753,-5.602 0.2755,-8.4063 -7e-4,-71.2082 -57.867,-129.1591 -129.7787,-129.9684 v -0.01 h -1.4912 z" />
  <path
     id="rect4-1"
     style="fill:#ff383f;fill-opacity:1;stroke-width:0.966594;stroke-dasharray:none"
     d="M 801.11356,0 V 0.02929994 H 396.22709 V 0.00419999 H 0.01477053 V 1107.4291 C 0.00479044,1108.2254 9.9800004e-5,1109.0217 0,1109.818 l 0.01477053,0.2241 v 1.6602 H 0.12443177 C 1.1658142,1219.5578 89.495875,1306.4651 198.13885,1306.5274 c 108.64216,-0.063 196.97094,-86.9704 198.0123,-194.8251 h 0.076 v -1.1495 c 0.0167,-0.2449 0.0328,-0.4898 0.0485,-0.7348 1e-4,-1.4553 -0.0161,-2.9105 -0.0485,-4.3655 V 164.43611 h 0.008 c -0.01,-0.47318 -0.0146,-0.94637 -0.0147,-1.41959 -1e-5,-65.925114 90.77347,-123.016785 202.56805,-123.016605 111.79376,5e-4 202.27416,57.091981 202.27415,123.016605 -1.2e-4,0.47322 -0.005,0.94641 -0.0147,1.41959 h 0.0653 v 304.80644 h 0.0105 c 0.0344,108.61644 88.73421,196.64921 198.1388,196.64872 109.42855,-5.3e-4 198.13745,-88.07128 198.13695,-196.71153 2e-4,-0.68118 0,-1.36237 -0.01,-2.04351 V 164.4089 h 0.1539 c -0.1001,-1.52567 -0.1497,-3.0523 -0.1498,-4.57909 0,-65.925097 92.5691,-119.830045 204.7921,-119.829895 112.2224,5e-4 201.6022,53.905258 201.6022,119.829895 7e-4,1.52678 -0.049,3.05341 -0.1477,4.57909 h 0.1372 v 746.47408 c -0.036,1.52679 -0.053,3.05395 -0.053,4.58116 -5e-4,108.64016 88.7083,196.71086 198.1368,196.71146 109.4292,5e-4 198.1393,-88.0705 198.1388,-196.71146 0,-1.26543 -0.012,-2.53081 -0.037,-3.79601 h 0.023 V 0.02302995 H 1604.2918 V 0 h -406.9024 z" />
</svg>
